<svg width="373" height="200" viewBox="0 0 373 200" fill="none" xmlns="http://www.w3.org/2000/svg">
<path d="M175.998 32.2361H139.295V128.263C139.295 147.635 132.367 164.51 118.511 178.888C114.973 182.369 111.362 185.395 107.677 187.968C104.139 190.39 100.307 192.584 96.1796 194.552C88.0725 198.033 79.5969 199.773 70.7528 199.773C51.8854 199.773 35.5975 193.417 21.8892 180.704C7.29639 167.083 0 149.603 0 128.263V8.33333L31.3966 0V128.263C31.3966 134.014 32.3547 139.236 34.2709 143.927C36.3345 148.619 39.43 152.857 43.5572 156.64C47.0948 159.97 51.3695 162.694 56.3812 164.813C58.4448 165.569 60.4347 166.25 62.3509 166.856C64.4145 167.31 67.1415 167.537 70.5317 167.537C78.7862 167.537 86.8196 164.132 94.6319 157.321C103.476 149.603 107.898 139.841 107.898 128.036V0H175.998V32.2361Z" fill="white"/>
<path d="M364.819 99.8865C364.819 127.885 355.164 151.57 335.855 170.942C316.545 190.314 293.035 200 265.323 200C237.906 200 214.469 190.465 195.012 171.396C175.555 152.176 165.827 128.339 165.827 99.8865C165.827 81.4226 170.544 64.3208 179.977 48.5812C183.663 42.3761 187.79 36.9277 192.359 32.2361H172.239V0H373L356.417 32.2361H337.181C341.898 36.9277 346.025 41.9977 349.563 47.4461C359.734 63.6398 364.819 81.1199 364.819 99.8865ZM333.644 99.8865C333.644 80.9686 327.011 65.0019 313.745 51.9864C300.626 38.9709 284.412 32.4631 265.102 32.4631C255.373 32.4631 246.603 34.0522 238.791 37.2304C230.978 40.2573 223.608 45.1759 216.68 51.9864C203.709 64.6992 197.223 80.6659 197.223 99.8865C197.223 118.956 203.783 135.074 216.902 148.241C230.02 161.256 246.087 167.764 265.102 167.764C284.117 167.764 300.257 161.18 313.523 148.014C326.937 134.847 333.644 118.804 333.644 99.8865Z" fill="white"/>
</svg>
