<svg width="233" height="24" viewBox="0 0 233 24" fill="none" xmlns="http://www.w3.org/2000/svg">
<path d="M4.07282 23H0.230816V0.219999H4.95682L9.85282 10.216L12.0968 16.03L14.3748 10.216L19.2708 0.219999H23.9628V23H20.1208V12.29L20.5968 4.776L17.9788 11.304L14.0348 19.158H10.1588L6.21482 11.304L3.52882 4.776L4.07282 12.29V23ZM32.0163 23.34C29.2963 23.34 27.6643 21.81 27.6643 19.43C27.6643 17.084 29.2963 15.656 31.9823 14.602L37.5243 12.256C37.3883 10.59 36.6403 9.468 34.3623 9.468C32.1523 9.468 30.4183 10.76 29.4663 12.494L27.1883 9.774C28.4803 8.006 31.0643 6.102 34.7363 6.102C38.8503 6.102 41.1623 8.448 41.1623 12.528V18.75C41.1623 19.498 41.4343 19.736 42.0463 19.736H43.1003V23H40.7543C38.9863 23 37.5923 22.184 37.5923 19.804V18.58C37.0823 20.756 35.4843 23.34 32.0163 23.34ZM31.3363 18.852C31.3363 19.804 31.9823 20.382 33.3763 20.382C35.8923 20.382 37.5923 18.886 37.5923 16.642V14.874L33.3423 16.778C31.9143 17.424 31.3363 18.002 31.3363 18.852ZM51.5647 23.374C48.4367 23.374 46.6347 21.402 46.6347 18.478V9.4H44.0507V6.442H46.6347V4.436L50.4427 2.022V6.442H55.5087V9.4H50.4427V17.56C50.4427 19.362 51.2927 19.804 52.4147 19.804C53.7067 19.804 54.6587 18.75 55.1347 17.798L56.3247 21.198C55.6107 22.252 53.9787 23.374 51.5647 23.374ZM65.1435 23.34C60.2135 23.34 56.9835 19.906 56.9835 14.738C56.9835 9.536 60.2135 6.102 64.8715 6.102C69.8355 6.102 72.5895 9.4 72.5895 13.99C72.5895 14.602 72.5215 15.316 72.4535 15.656H60.6215C60.8255 18.614 62.5595 20.212 65.1775 20.212C68.0675 20.212 69.3595 18.716 69.9715 17.322L72.3175 19.77C71.0595 21.674 68.8155 23.34 65.1435 23.34ZM64.8715 9.162C62.5255 9.162 60.9615 10.522 60.6555 13.208H69.1555C68.8835 10.59 67.3875 9.162 64.8715 9.162ZM83.2304 23.34C78.4704 23.34 75.2064 19.872 75.2064 14.738C75.2064 9.57 78.4704 6.102 83.2304 6.102C88.0584 6.102 91.3224 9.57 91.3224 14.738C91.3224 19.872 88.0584 23.34 83.2304 23.34ZM83.2644 20.178C85.7464 20.178 87.4464 18.546 87.4464 14.738C87.4464 10.896 85.7464 9.264 83.2644 9.264C80.8164 9.264 79.1164 10.896 79.1164 14.738C79.1164 18.546 80.8164 20.178 83.2644 20.178ZM101.124 23.34C97.5877 23.34 94.3577 21.912 93.0997 19.294L95.3437 16.914C96.2617 18.58 98.3017 20.28 101.26 20.28C102.892 20.28 103.946 19.702 103.946 18.512C103.946 17.288 102.688 16.88 100.852 16.438L98.6417 15.894C96.0237 15.282 93.6097 14.126 93.6097 11.1C93.6097 8.006 96.0917 6.136 99.8997 6.136C103.436 6.136 105.918 7.836 106.938 9.706L104.694 12.086C103.538 10.25 101.77 9.162 99.6277 9.162C98.1657 9.162 97.1797 9.774 97.1797 10.896C97.1797 12.086 98.0637 12.528 100.308 13.106L102.314 13.616C106.02 14.568 107.38 16.064 107.38 18.444C107.38 21.708 104.626 23.34 101.124 23.34ZM126.883 23H123.041V3.62H116.071V0.219999H133.887V3.62H126.883V23ZM140.303 23.34C136.767 23.34 133.537 21.912 132.279 19.294L134.523 16.914C135.441 18.58 137.481 20.28 140.439 20.28C142.071 20.28 143.125 19.702 143.125 18.512C143.125 17.288 141.867 16.88 140.031 16.438L137.821 15.894C135.203 15.282 132.789 14.126 132.789 11.1C132.789 8.006 135.271 6.136 139.079 6.136C142.615 6.136 145.097 7.836 146.117 9.706L143.873 12.086C142.717 10.25 140.949 9.162 138.807 9.162C137.345 9.162 136.359 9.774 136.359 10.896C136.359 12.086 137.243 12.528 139.487 13.106L141.493 13.616C145.199 14.568 146.559 16.064 146.559 18.444C146.559 21.708 143.805 23.34 140.303 23.34ZM153.141 23.34C150.421 23.34 148.789 21.81 148.789 19.43C148.789 17.084 150.421 15.656 153.107 14.602L158.649 12.256C158.513 10.59 157.765 9.468 155.487 9.468C153.277 9.468 151.543 10.76 150.591 12.494L148.313 9.774C149.605 8.006 152.189 6.102 155.861 6.102C159.975 6.102 162.287 8.448 162.287 12.528V18.75C162.287 19.498 162.559 19.736 163.171 19.736H164.225V23H161.879C160.111 23 158.717 22.184 158.717 19.804V18.58C158.207 20.756 156.609 23.34 153.141 23.34ZM152.461 18.852C152.461 19.804 153.107 20.382 154.501 20.382C157.017 20.382 158.717 18.886 158.717 16.642V14.874L154.467 16.778C153.039 17.424 152.461 18.002 152.461 18.852ZM170.945 23H167.137V6.442H170.945V11.134C171.557 8.482 173.223 6.102 176.181 6.102C178.255 6.102 179.785 7.462 179.785 9.91C179.785 11.508 179.343 12.698 179.037 13.208H175.127C175.671 12.664 176.181 11.576 176.181 10.624C176.181 9.706 175.739 8.958 174.617 8.958C172.713 8.958 170.945 11.134 170.945 13.888V23ZM189.257 23.34C184.327 23.34 181.097 19.906 181.097 14.738C181.097 9.536 184.327 6.102 188.985 6.102C193.949 6.102 196.703 9.4 196.703 13.99C196.703 14.602 196.635 15.316 196.567 15.656H184.735C184.939 18.614 186.673 20.212 189.291 20.212C192.181 20.212 193.473 18.716 194.085 17.322L196.431 19.77C195.173 21.674 192.929 23.34 189.257 23.34ZM188.985 9.162C186.639 9.162 185.075 10.522 184.769 13.208H193.269C192.997 10.59 191.501 9.162 188.985 9.162ZM205.727 23.374C202.599 23.374 200.797 21.402 200.797 18.478V9.4H198.213V6.442H200.797V4.436L204.605 2.022V6.442H209.671V9.4H204.605V17.56C204.605 19.362 205.455 19.804 206.577 19.804C207.869 19.804 208.821 18.75 209.297 17.798L210.487 21.198C209.773 22.252 208.141 23.374 205.727 23.374ZM219.227 23.34C215.691 23.34 212.461 21.912 211.203 19.294L213.447 16.914C214.365 18.58 216.405 20.28 219.363 20.28C220.995 20.28 222.049 19.702 222.049 18.512C222.049 17.288 220.791 16.88 218.955 16.438L216.745 15.894C214.127 15.282 211.713 14.126 211.713 11.1C211.713 8.006 214.195 6.136 218.003 6.136C221.539 6.136 224.021 7.836 225.041 9.706L222.797 12.086C221.641 10.25 219.873 9.162 217.731 9.162C216.269 9.162 215.283 9.774 215.283 10.896C215.283 12.086 216.167 12.528 218.411 13.106L220.417 13.616C224.123 14.568 225.483 16.064 225.483 18.444C225.483 21.708 222.729 23.34 219.227 23.34ZM232.305 4.096H228.497V0.219999H232.305V4.096ZM232.305 23H228.497V6.442H232.305V23Z" fill="white"/>
</svg>
