<svg width="45" height="24" viewBox="0 0 45 24" fill="none" xmlns="http://www.w3.org/2000/svg">
<path d="M21.2267 3.86833H16.8V15.3916C16.8 17.7162 15.9644 19.7412 14.2933 21.4665C13.8667 21.8842 13.4311 22.2474 12.9867 22.5562C12.56 22.8468 12.0978 23.1101 11.6 23.3462C10.6222 23.7639 9.6 23.9728 8.53333 23.9728C6.25778 23.9728 4.29333 23.21 2.64 21.6845C0.88 20.0499 0 17.9523 0 15.3916V1L3.78667 0V15.3916C3.78667 16.0817 3.90222 16.7083 4.13333 17.2713C4.38222 17.8343 4.75556 18.3428 5.25333 18.7968C5.68 19.1964 6.19556 19.5233 6.8 19.7775C7.04889 19.8683 7.28889 19.9501 7.52 20.0227C7.76889 20.0772 8.09778 20.1044 8.50667 20.1044C9.50222 20.1044 10.4711 19.6958 11.4133 18.8785C12.48 17.9523 13.0133 16.7809 13.0133 15.3644V0H21.2267V3.86833Z" fill="white"/>
<path d="M44 11.9864C44 15.3462 42.8356 18.1884 40.5067 20.5131C38.1778 22.8377 35.3422 24 32 24C28.6933 24 25.8667 22.8558 23.52 20.5675C21.1733 18.2611 20 15.4007 20 11.9864C20 9.77072 20.5689 7.7185 21.7067 5.82974C22.1511 5.08513 22.6489 4.43133 23.2 3.86833H20.7733V0H44.9867L42.9867 3.86833H40.6667C41.2356 4.43133 41.7333 5.03973 42.16 5.69353C43.3867 7.63678 44 9.73439 44 11.9864ZM40.24 11.9864C40.24 9.71623 39.44 7.80023 37.84 6.23837C36.2578 4.6765 34.3022 3.89557 31.9733 3.89557C30.8 3.89557 29.7422 4.08627 28.8 4.46765C27.8578 4.83087 26.9689 5.42111 26.1333 6.23837C24.5689 7.76391 23.7867 9.67991 23.7867 11.9864C23.7867 14.2747 24.5778 16.2089 26.16 17.7889C27.7422 19.3507 29.68 20.1317 31.9733 20.1317C34.2667 20.1317 36.2133 19.3417 37.8133 17.7616C39.4311 16.1816 40.24 14.2565 40.24 11.9864Z" fill="white"/>
</svg>
