<svg width="10" height="3" viewBox="0 0 10 3" fill="none" xmlns="http://www.w3.org/2000/svg">
<path d="M1.65694 2.096C1.3796 2.096 1.14494 2 0.952938 1.808C0.760938 1.616 0.664938 1.38133 0.664938 1.104C0.664938 0.826667 0.760938 0.592 0.952938 0.4C1.14494 0.208 1.3796 0.112 1.65694 0.112C1.9236 0.112 2.1476 0.208 2.32894 0.4C2.52094 0.592 2.61694 0.826667 2.61694 1.104C2.61694 1.38133 2.52094 1.616 2.32894 1.808C2.1476 2 1.9236 2.096 1.65694 2.096ZM5.01631 2.096C4.73898 2.096 4.50431 2 4.31231 1.808C4.12031 1.616 4.02431 1.38133 4.02431 1.104C4.02431 0.826667 4.12031 0.592 4.31231 0.4C4.50431 0.208 4.73898 0.112 5.01631 0.112C5.28298 0.112 5.50698 0.208 5.68831 0.4C5.88031 0.592 5.97631 0.826667 5.97631 1.104C5.97631 1.38133 5.88031 1.616 5.68831 1.808C5.50698 2 5.28298 2.096 5.01631 2.096ZM8.37569 2.096C8.09835 2.096 7.86369 2 7.67169 1.808C7.47969 1.616 7.38369 1.38133 7.38369 1.104C7.38369 0.826667 7.47969 0.592 7.67169 0.4C7.86369 0.208 8.09835 0.112 8.37569 0.112C8.64235 0.112 8.86635 0.208 9.04769 0.4C9.23969 0.592 9.33569 0.826667 9.33569 1.104C9.33569 1.38133 9.23969 1.616 9.04769 1.808C8.86635 2 8.64235 2.096 8.37569 2.096Z" fill="black"/>
</svg>
